<svg width="76" height="90" viewBox="0 0 76 90" fill="none" xmlns="http://www.w3.org/2000/svg">
<path d="M4 48.7546V86H71.5824V74.5861V60.1685V4H35.8388V48.7546L19.9194 32.8352L4 48.7546Z" fill="#446D87" stroke="#1478B4" stroke-opacity="0.42" stroke-width="7" stroke-linecap="square" stroke-linejoin="round" stroke-dasharray="14 10"/>
<path d="M63.6744 20.2199C63.6744 24.4585 59.3525 28.2308 53.5608 28.2308C47.7691 28.2308 43.4473 24.4585 43.4473 20.2199C43.4473 15.9812 47.7691 12.2089 53.5608 12.2089C59.3525 12.2089 63.6744 15.9812 63.6744 20.2199Z" stroke="white" stroke-width="2"/>
<path d="M49.0557 17.2162V23.2235" stroke="white" stroke-width="2" stroke-linecap="round"/>
<path d="M46.6523 19.0183V21.4212" stroke="white" stroke-width="2" stroke-linecap="round"/>
<path d="M61.0703 18.4176V21.4213" stroke="white" stroke-width="2" stroke-linecap="round"/>
<path d="M58.667 16.6154V23.8241" stroke="white" stroke-width="2" stroke-linecap="round"/>
<path d="M51.458 14.8132V25.6264" stroke="white" stroke-width="2" stroke-linecap="round"/>
<path d="M53.8613 15.4139V24.4249" stroke="white" stroke-width="2" stroke-linecap="round"/>
<path d="M56.2637 17.2162V22.6228" stroke="white" stroke-width="2" stroke-linecap="round"/>
<path d="M30.0328 56.2638C30.0328 60.5024 25.7109 64.2748 19.9192 64.2748C14.1275 64.2748 9.80566 60.5024 9.80566 56.2638C9.80566 52.0252 14.1275 48.2528 19.9192 48.2528C25.7109 48.2528 30.0328 52.0252 30.0328 56.2638Z" stroke="white" stroke-width="2"/>
<path d="M15.4141 53.26V59.2673" stroke="white" stroke-width="2" stroke-linecap="round"/>
<path d="M13.0107 55.0623V57.4652" stroke="white" stroke-width="2" stroke-linecap="round"/>
<path d="M27.4287 54.4615V57.4652" stroke="white" stroke-width="2" stroke-linecap="round"/>
<path d="M25.0254 52.6593V59.8681" stroke="white" stroke-width="2" stroke-linecap="round"/>
<path d="M17.8164 50.8571V61.6702" stroke="white" stroke-width="2" stroke-linecap="round"/>
<path d="M20.2197 51.4579V60.4689" stroke="white" stroke-width="2" stroke-linecap="round"/>
<path d="M22.6221 53.26V58.6666" stroke="white" stroke-width="2" stroke-linecap="round"/>
</svg>
